<svg xmlns="http://www.w3.org/2000/svg" width="400" height="250" viewBox="0 0 400 250">
  <g id="default" transform="translate(3155 -2379)">
    <rect id="Rectangle_66" data-name="Rectangle 66" width="400" height="250" transform="translate(-3155 2379)" fill="#f9f9f9"/>
    <path id="default-2" data-name="default" d="M3276.756-2665.963a8.858,8.858,0,0,1,8.761-8.962,8.858,8.858,0,0,1,8.759,8.962,8.858,8.858,0,0,1-8.759,8.963A8.858,8.858,0,0,1,3276.756-2665.963Zm2.651.026a6.323,6.323,0,0,0,6.11,6.513,6.323,6.323,0,0,0,6.109-6.513,6.323,6.323,0,0,0-6.109-6.513A6.339,6.339,0,0,0,3279.407-2665.937Zm34.99-.05a8.848,8.848,0,0,1,8.71-8.962,8.849,8.849,0,0,1,8.709,8.962,8.324,8.324,0,0,1-.1,1.364l-.025.126H3318.11l.049.177a5.236,5.236,0,0,0,4.949,3.686,5.093,5.093,0,0,0,3.332-1.237s.253-.226.277-.252h4.241l-.126.226a8.606,8.606,0,0,1-7.725,4.874A8.848,8.848,0,0,1,3314.4-2665.988Zm3.762-1.691-.049.177h10.022l-.077-.177a5.178,5.178,0,0,0-4.947-3.686A5.236,5.236,0,0,0,3318.159-2667.679Zm-63.721,10.148a6.312,6.312,0,0,1-2.222-1.464,6.255,6.255,0,0,1-1.489-2.272,8.043,8.043,0,0,1-.5-2.928v-10.427h2.02v10.275a6.453,6.453,0,0,0,.354,2.248,4.761,4.761,0,0,0,1.085,1.691,4.6,4.6,0,0,0,1.591,1.085,5,5,0,0,0,1.918.378,5.028,5.028,0,0,0,1.945-.378,4.579,4.579,0,0,0,1.59-1.085,5.416,5.416,0,0,0,1.086-1.691,5.911,5.911,0,0,0,.429-2.222V-2674.6h2.02v10.426a7.566,7.566,0,0,1-.581,2.928,6.9,6.9,0,0,1-1.515,2.272,6.42,6.42,0,0,1-2.246,1.464,8.032,8.032,0,0,1-2.728.48A7.716,7.716,0,0,1,3254.438-2657.53ZM3230-2665.988a8.849,8.849,0,0,1,8.709-8.962,8.849,8.849,0,0,1,8.71,8.962v.05a7.538,7.538,0,0,1-.076,1.287H3232.2l.025.1a6.725,6.725,0,0,0,6.488,5.4,6.6,6.6,0,0,0,5.4-2.852.814.814,0,0,0,.2-.329h2.349l-.2.428a8.672,8.672,0,0,1-7.751,4.873A8.848,8.848,0,0,1,3230-2665.988Zm2.146-.883-.025.1h13.229l-.026-.1a6.738,6.738,0,0,0-6.588-5.983A6.739,6.739,0,0,0,3232.146-2666.871Zm142.135,5.806a3.609,3.609,0,0,1,3.61-3.61,3.609,3.609,0,0,1,3.611,3.61,3.61,3.61,0,0,1-3.611,3.611A3.61,3.61,0,0,1,3374.281-2661.065Zm-9.8,3.61a17.666,17.666,0,0,1-4.8-.782v-3.282h.177a18.742,18.742,0,0,0,4.569.706h.885c1.388,0,2.448-.429,2.448-1.843,0-1.06-.935-1.489-1.944-1.767l-2.651-.707a4.429,4.429,0,0,1-3.509-4.772c0-3.433,2.827-4.846,6.261-4.846h.884a16.492,16.492,0,0,1,4.165.63v3.257h-.177a20.5,20.5,0,0,0-3.964-.53h-.782c-1.237,0-2.3.253-2.3,1.489,0,.961.732,1.364,1.59,1.591l2.651.732c2.551.682,3.889,2.2,3.889,4.923,0,3.788-2.727,5.2-6.513,5.2Zm-56-.025v-9.038a5.2,5.2,0,0,0-.3-1.919,4.312,4.312,0,0,0-.884-1.414,4.058,4.058,0,0,0-1.287-.884,4.286,4.286,0,0,0-1.591-.328,3.941,3.941,0,0,0-1.616.328,3.8,3.8,0,0,0-1.288.884,4.877,4.877,0,0,0-.909,1.414,5.316,5.316,0,0,0-.378,1.919v9.012h-3.99v-9.189a9,9,0,0,1,.657-3.332,7.82,7.82,0,0,1,1.742-2.651,8.176,8.176,0,0,1,2.6-1.717,8.275,8.275,0,0,1,3.156-.605,8.265,8.265,0,0,1,3.155.605,7.519,7.519,0,0,1,2.6,1.717,7.8,7.8,0,0,1,1.742,2.651,9.2,9.2,0,0,1,.58,3.357v9.189Zm-41.354-9.872a8.638,8.638,0,0,1,.253-2.146,7.025,7.025,0,0,1,1.161-2.524,6.874,6.874,0,0,1,2.651-2.1,11.4,11.4,0,0,1,4.595-.858h.328v2.146h-.328a9.843,9.843,0,0,0-3.333.5,4.694,4.694,0,0,0-1.944,1.288,4.5,4.5,0,0,0-.959,1.742,7.482,7.482,0,0,0-.277,1.918v9.871h-2.147v-9.846Zm80.94,9.846a46.562,46.562,0,0,1-2.525-8.432,47.085,47.085,0,0,1-2.5,8.432h-5.377a64.871,64.871,0,0,1-4.494-17.015v-.1h4.317a74.253,74.253,0,0,0,3.055,13.633,68.509,68.509,0,0,0,3.206-13.633h3.585a72.969,72.969,0,0,0,3.232,13.633,82.906,82.906,0,0,0,3.055-13.633h4.292v.1a83.96,83.96,0,0,1-4.468,17.015Z" transform="translate(-6261 5170)" fill="#e2e2e2"/>
  </g>
</svg>
